<svg width="80.429" height="80.428" xmlns="http://www.w3.org/2000/svg" fill="#ffffff">

 <g>
  <title>Layer 1</title>
  <g id="svg_1">
   <path id="svg_2" d="m37.242,2.971c14.689,0 27.651,8.476 33.688,21.325l4.201,-8.719l5.298,2.552l-8.721,18.102l-18.103,-8.721l2.553,-5.298l9.43,4.542c-5.094,-10.79 -15.994,-17.901 -28.346,-17.901c-17.292,0 -31.362,14.068 -31.362,31.361s14.07,31.362 31.362,31.362c10.183,0 19.769,-4.975 25.647,-13.307l4.805,3.391c-6.979,9.892 -18.361,15.797 -30.452,15.797c-20.535,0.001 -37.242,-16.707 -37.242,-37.243s16.707,-37.243 37.242,-37.243z"/>
  </g>
  <g id="svg_3"/>
  <g id="svg_4"/>
  <g id="svg_5"/>
  <g id="svg_6"/>
  <g id="svg_7"/>
  <g id="svg_8"/>
  <g id="svg_9"/>
  <g id="svg_10"/>
  <g id="svg_11"/>
  <g id="svg_12"/>
  <g id="svg_13"/>
  <g id="svg_14"/>
  <g id="svg_15"/>
  <g id="svg_16"/>
  <g id="svg_17"/>
  <text style="cursor: move;" transform="matrix(1.78127 0 0 1.39523 -21.7536 -6.62634)" stroke="#000" xml:space="preserve" text-anchor="start" font-family="sans-serif" font-size="33" id="svg_18" y="42.65812" x="24.58919" stroke-width="0">z</text>
 </g>
</svg>