<svg height="479pt" viewBox="0 -51 479.96 479" width="479pt" xmlns="http://www.w3.org/2000/svg" fill="#ffffff"><path d="m479.359375 61.488281-.046875-.152343-24-56c-1.257812-2.945313-4.152344-4.855469-7.351562-4.855469h-416c-3.199219 0-6.09375 1.90625-7.351563 4.847656l-24 56v.152344c-.335937.847656-.5195312 1.746093-.546875 2.65625 0 .121093-.0625.214843-.0625.335937v304.007813c0 4.417969 3.582031 8 8 8h463.960938c4.417968 0 8-3.582031 8-8v-304c0-.121094-.066407-.214844-.066407-.335938-.027343-.910156-.207031-1.808593-.535156-2.65625zm-442.128906-45.007812h405.457031l17.136719 40h-439.726563zm426.730469 344h-448v-288h448zm0 0"/><path d="m346.304688 198.136719c1.5 1.5 3.535156 2.34375 5.65625 2.34375h64c2.121093 0 4.15625-.84375 5.65625-2.34375l24-24c1.5-1.5 2.34375-3.535157 2.34375-5.65625v-40c0-4.417969-3.582032-8-8-8h-112c-4.417969 0-8 3.582031-8 8v40c0 2.121093.84375 4.15625 2.34375 5.65625zm-10.34375-61.65625h96v28.6875l-19.3125 19.3125h-57.375l-19.3125-19.3125zm0 0"/><path d="m365.640625 158.160156c.703125-.78125 1.273437-1.671875 1.679687-2.640625.410157-.960937.628907-1.992187.640626-3.039062 0-4.417969-3.582032-8-8-8-4.417969 0-8 3.582031-8 8 .011718 1.046875.230468 2.078125.640624 3.039062.40625.96875.972657 1.859375 1.679688 2.640625 3.152344 3.09375 8.203125 3.09375 11.359375 0zm0 0"/><path d="m380.921875 175.839844c2.976563 1.277344 6.429687.609375 8.71875-1.679688.703125-.78125 1.273437-1.671875 1.679687-2.640625.410157-.960937.628907-1.992187.640626-3.039062.019531-3.25-1.929688-6.1875-4.933594-7.433594-3-1.25-6.457032-.554687-8.746094 1.753906-1.480469 1.519531-2.3125 3.558594-2.320312 5.679688-.023438 2.128906.8125 4.175781 2.320312 5.679687.777344.707032 1.667969 1.273438 2.640625 1.679688zm0 0"/><path d="m402.28125 158.160156c3.152344 3.09375 8.203125 3.09375 11.359375 0 .703125-.78125 1.273437-1.671875 1.679687-2.640625.410157-.960937.628907-1.992187.640626-3.039062-.03125-2.117188-.859376-4.148438-2.320313-5.679688-1.921875-1.878906-4.644531-2.683593-7.28125-2.160156-.5.085937-.984375.25-1.4375.480469-.511719.175781-1 .417968-1.449219.71875-.414062.296875-.8125.617187-1.191406.960937-1.464844 1.53125-2.296875 3.558594-2.320312 5.679688-.027344 1.050781.191406 2.089843.640624 3.039062.40625.96875.972657 1.859375 1.679688 2.640625zm0 0"/><path d="m431.960938 264.480469h-96c-4.417969 0-8 3.582031-8 8v48c0 4.417969 3.582031 8 8 8h96c4.417968 0 8-3.582031 8-8v-48c0-4.417969-3.582032-8-8-8zm-88 16h32v32h-32zm80 32h-32v-32h32zm0 0"/><path d="m39.960938 344.480469h32v-16h-24v-24h-16v32c0 4.417969 3.582031 8 8 8zm0 0"/><path d="m271.960938 128.480469h16v-32c0-4.417969-3.582032-8-8-8h-32v16h24zm0 0"/><path d="m47.960938 104.480469h24v-16h-32c-4.417969 0-8 3.582031-8 8v32h16zm0 0"/><path d="m271.960938 328.480469h-24v16h32c4.417968 0 8-3.582031 8-8v-32h-16zm0 0"/><path d="m159.960938 96.480469c-66.273438 0-120 53.726562-120 120 0 66.273437 53.726562 120 120 120 66.273437 0 120-53.726563 120-120-.074219-66.242188-53.757813-119.925781-120-120zm67.582031 176.273437c27.222656-32.578125 27.222656-79.96875 0-112.546875l11.304687-11.304687c33.484375 38.832031 33.484375 96.324218 0 135.152344zm-27.582031-56.273437c-.003907 7.835937-2.320313 15.5-6.664063 22.023437l-11.738281-11.742187c3.210937-6.480469 3.210937-14.085938 0-20.5625l11.746094-11.742188c4.339843 6.523438 6.65625 14.1875 6.65625 22.023438zm-80 0c0-7.839844 2.320312-15.5 6.664062-22.023438l11.734375 11.742188c-3.210937 6.476562-3.210937 14.082031 0 20.5625l-11.742187 11.742187c-4.34375-6.523437-6.65625-14.1875-6.65625-22.023437zm32 0c0-4.417969 3.582031-8 8-8 4.417968 0 8 3.582031 8 8s-3.582032 8-8 8c-4.417969 0-8-3.582031-8-8zm18.277343-21.601563c-6.476562-3.210937-14.082031-3.210937-20.558593 0l-11.742188-11.742187c13.335938-8.886719 30.707031-8.886719 44.046875 0zm-20.558593 43.199219c6.476562 3.214844 14.082031 3.214844 20.558593 0l11.746094 11.746094c-13.339844 8.882812-30.710937 8.882812-44.046875 0zm43.753906-66.398437c-19.8125-14.953126-47.136719-14.953126-66.945313 0l-11.417969-11.414063c26.21875-21.066406 63.558594-21.066406 89.777344 0zm-78.273438 11.328124c-14.957031 19.808594-14.957031 47.136719 0 66.945313l-11.417968 11.414063c-21.066407-26.21875-21.066407-63.558594 0-89.773438zm11.328125 78.273438c19.808594 14.953125 47.132813 14.953125 66.945313 0l11.414062 11.414062c-26.21875 21.066407-63.558594 21.066407-89.777344 0zm78.273438-11.328125c14.953125-19.808594 14.953125-47.136719 0-66.945313l11.414062-11.414062c21.066407 26.214844 21.066407 63.554688 0 89.773438zm22.789062-112.359375-11.304687 11.300781c-32.574219-27.21875-79.964844-27.21875-112.542969 0l-11.304687-11.300781c38.832031-33.484375 96.324218-33.484375 135.152343 0zm-146.480469 11.308594 11.304688 11.304687c-27.21875 32.578125-27.21875 79.96875 0 112.546875l-11.304688 11.300782c-33.480468-38.828126-33.480468-96.320313 0-135.152344zm11.3125 146.464844 11.304688-11.304688c32.578125 27.222656 79.96875 27.222656 112.542969 0l11.304687 11.304688c-38.828125 33.484374-96.320312 33.484374-135.152344 0zm0 0"/></svg>