<svg height="479.99658pt" viewBox="0 0 479.99658 479.99658" width="479.99658pt" xmlns="http://www.w3.org/2000/svg" fill="#ffffff"><path d="m421.652344 50.34375c-1.496094-1.5-3.53125-2.34375-5.652344-2.34375-2.125-.003906-4.164062.839844-5.664062 2.34375l-3.019532 3.023438c-2.5625 2.570312-6.421875 3.34375-9.777344 1.957031-3.355468-1.390625-5.542968-4.664063-5.539062-8.292969.007812-2.378906.949219-4.65625 2.621094-6.34375l3.03125-3.035156c3.125-3.121094 3.125-8.1875 0-11.308594l-24-24c-3.121094-3.125-8.1875-3.125-11.308594 0l-360 360c-3.125 3.121094-3.125 8.1875 0 11.308594l24 24c3.121094 3.125 8.1875 3.125 11.308594 0l3.035156-3.03125c2.5625-2.566406 6.421875-3.335938 9.777344-1.945313 3.351562 1.390625 5.535156 4.660157 5.535156 8.289063-.011719 2.378906-.953125 4.65625-2.625 6.34375l-3.03125 3.035156c-3.125 3.121094-3.125 8.1875 0 11.308594l56 56c3.121094 3.125 8.1875 3.125 11.308594 0l168-168c3.125-3.121094 3.125-8.1875 0-11.308594l-18.34375-18.34375 12.691406-12.691406 18.34375 18.34375c3.121094 3.125 8.1875 3.125 11.308594 0l168-168c3.125-3.121094 3.125-8.1875 0-11.308594zm-285.652344 386.34375-12.691406-12.6875 12.691406-12.691406 12.6875 12.691406zm96-121.378906 12.6875 12.691406-12.6875 12.6875-12.691406-12.6875zm-24 24 12.6875 12.691406-12.6875 12.6875-12.691406-12.6875zm-24 24 12.6875 12.691406-12.6875 12.6875-12.691406-12.6875zm-24 24 12.6875 12.691406-12.6875 12.6875-12.691406-12.6875zm108.6875-83.308594-12.6875 12.6875-12.691406-12.6875 12.691406-12.691406zm22.621094-48 12.691406-12.691406 12.6875 12.691406-12.6875 12.6875zm108.691406-108.691406 12.6875 12.691406-12.6875 12.6875-12.691406-12.6875zm-24 24 12.6875 12.691406-12.6875 12.6875-12.691406-12.6875zm-24 24 12.6875 12.691406-12.6875 12.6875-12.691406-12.6875zm-24 24 12.6875 12.691406-12.6875 12.6875-12.691406-12.6875zm96-70.621094-12.691406-12.6875 12.691406-12.691406 12.6875 12.691406zm24-24-18.347656-18.34375c-3.121094-3.125-8.1875-3.125-11.308594 0l-312 312c-3.125 3.121094-3.125 8.1875 0 11.308594l18.34375 18.347656-12.6875 12.6875-44.890625-44.890625c5.605469-7.578125 6.460937-17.667969 2.214844-26.082031-4.246094-8.414063-12.867188-13.71875-22.292969-13.714844-5.34375-.015625-10.550781 1.695312-14.839844 4.878906l-12.882812-12.878906 348.691406-348.691406 12.886719 12.890625c-5.605469 7.578125-6.460938 17.667969-2.214844 26.082031s12.867187 13.722656 22.292969 13.71875c5.34375.011719 10.546875-1.699219 14.839844-4.875l44.882812 44.875zm0 0"/><path d="m117.652344 306.34375c-3.121094-3.125-8.1875-3.125-11.308594 0l-32 32c-3.125 3.121094-3.125 8.1875 0 11.308594l32 32c3.121094 3.125 8.1875 3.125 11.308594 0l32-32c3.125-3.121094 3.125-8.1875 0-11.308594zm-5.652344 58.34375-20.691406-20.6875 20.691406-20.691406 20.6875 20.691406zm0 0"/><path d="m181.652344 242.34375c-3.121094-3.125-8.1875-3.125-11.308594 0l-32 32c-3.125 3.121094-3.125 8.1875 0 11.308594l32 32c3.121094 3.125 8.1875 3.125 11.308594 0l32-32c3.125-3.121094 3.125-8.1875 0-11.308594zm-5.652344 58.34375-20.691406-20.6875 20.691406-20.691406 20.6875 20.691406zm0 0"/><path d="m285.652344 138.34375c-3.121094-3.125-8.1875-3.125-11.308594 0l-32 32c-3.125 3.121094-3.125 8.1875 0 11.308594l32 32c3.121094 3.125 8.1875 3.125 11.308594 0l32-32c3.125-3.121094 3.125-8.1875 0-11.308594zm-5.652344 58.34375-20.691406-20.6875 20.691406-20.691406 20.6875 20.691406zm0 0"/><path d="m349.652344 74.34375c-3.121094-3.125-8.1875-3.125-11.308594 0l-32 32c-3.125 3.121094-3.125 8.1875 0 11.308594l32 32c3.121094 3.125 8.1875 3.125 11.308594 0l32-32c3.125-3.121094 3.125-8.1875 0-11.308594zm-5.652344 58.34375-20.691406-20.6875 20.691406-20.691406 20.6875 20.691406zm0 0"/></svg>