<?xml version="1.0" encoding="iso-8859-1"?>
<!-- Generator: Adobe Illustrator 19.0.0, SVG Export Plug-In . SVG Version: 6.00 Build 0)  -->
<svg version="1.1" id="Capa_1" xmlns="http://www.w3.org/2000/svg" xmlns:xlink="http://www.w3.org/1999/xlink" x="0px" y="0px"
	 viewBox="0 0 512 512" style="enable-background:new 0 0 512 512;" xml:space="preserve" fill="#ffffff">
<g>
	<g>
		<path d="M497,116H81V40.5c0-8.284-6.716-15-15-15H15c-8.284,0-15,6.716-15,15s6.716,15,15,15h36c0,47.166,0,360.728,0,416
			c0,8.284,6.716,15,15,15s15-6.716,15-15V396h416c8.284,0,15-6.716,15-15V131C512,122.716,505.284,116,497,116z M482,366H81V146
			h401V366z"/>
	</g>
</g>
<g>
	<g>
		<path d="M208.75,201h-80c-8.284,0-15,6.716-15,15v80c0,8.284,6.716,15,15,15h80c8.284,0,15-6.716,15-15v-80
			C223.75,207.716,217.034,201,208.75,201z M193.75,281h-50v-50h50V281z"/>
	</g>
</g>
<g>
	<g>
		<path d="M296.75,206c-27.57,0-50,22.43-50,50s22.43,50,50,50s50-22.43,50-50S324.32,206,296.75,206z M296.75,276
			c-11.028,0-20-8.972-20-20s8.972-20,20-20s20,8.972,20,20S307.778,276,296.75,276z"/>
	</g>
</g>
<g>
	<g>
		<path d="M434.25,196c-8.284,0-15,6.716-15,15v90c0,8.284,6.716,15,15,15s15-6.716,15-15v-90
			C449.25,202.716,442.534,196,434.25,196z"/>
	</g>
</g>
<g>
	<g>
		<path d="M384.25,196c-8.284,0-15,6.716-15,15v90c0,8.284,6.716,15,15,15s15-6.716,15-15v-90
			C399.25,202.716,392.534,196,384.25,196z"/>
	</g>
</g>
<g>
</g>
<g>
</g>
<g>
</g>
<g>
</g>
<g>
</g>
<g>
</g>
<g>
</g>
<g>
</g>
<g>
</g>
<g>
</g>
<g>
</g>
<g>
</g>
<g>
</g>
<g>
</g>
<g>
</g>
</svg>
